<svg xmlns="http://www.w3.org/2000/svg"
     x="0" y="0" width="512" height="512"
     viewBox="0 0 512 512"
     enable-background="new 0 0 512 512" fill="white">
    <g>
        <path d="m256 431.688c-4.142 0-7.5 3.357-7.5 7.5v16.308c0 4.143 3.358 7.5 7.5 7.5s7.5-3.357 7.5-7.5v-16.308c0-4.143-3.358-7.5-7.5-7.5z"/>
        <path d="m273.643 375.142c4.143 0 7.5-3.357 7.5-7.5s-3.357-7.5-7.5-7.5h-35.286c-4.142 0-7.5 3.357-7.5 7.5s3.358 7.5 7.5 7.5z"/>
        <path d="m474.5 216.858c4.143 0 7.5-3.357 7.5-7.5v-149.871c0-6.762-5.501-12.263-12.263-12.263h-427.474c-6.762 0-12.263 5.501-12.263 12.263v233.695c0 6.933 5.64 12.573 12.573 12.573h426.853c6.933 0 12.573-5.641 12.573-12.573v-53.837c0-4.143-3.357-7.5-7.5-7.5s-7.5 3.357-7.5 7.5v51.41h-421.999v-228.531h422v147.134c0 4.142 3.357 7.5 7.5 7.5z"/>
        <path d="m469.737 17.224h-369.733c-4.142 0-7.5 3.357-7.5 7.5s3.358 7.5 7.5 7.5h369.732c15.032 0 27.263 12.23 27.263 27.263v261.268h-481.999v-261.268c0-15.032 12.23-27.263 27.262-27.263h27.755c4.142 0 7.5-3.357 7.5-7.5s-3.358-7.5-7.5-7.5h-27.755c-23.303 0-42.262 18.959-42.262 42.263v312.78c0 23.303 18.959 42.262 42.262 42.262h97.164c4.142 0 7.5-3.357 7.5-7.5s-3.358-7.5-7.5-7.5h-97.164c-15.032 0-27.262-12.23-27.262-27.262v-36.513h482v36.513c0 15.032-12.23 27.262-27.263 27.262h-300.324c-4.142 0-7.5 3.357-7.5 7.5s3.358 7.5 7.5 7.5h31.174c2.477 26.217-12.637 52.198-29.884 65.247h-37.487c-4.142 0-7.5 3.357-7.5 7.5s3.358 7.5 7.5 7.5h245.568c4.143 0 7.5-3.357 7.5-7.5s-3.357-7.5-7.5-7.5h-37.487c-17.247-13.049-32.361-39.03-29.884-65.247h158.324c23.304 0 42.263-18.959 42.263-42.262v-312.78c0-23.304-18.959-42.263-42.263-42.263zm-150.258 462.552h-126.958c14.643-16.715 25.039-40.546 23.138-65.247h80.682c-1.901 24.701 8.495 48.532 23.138 65.247z"/>
        <path d="m244.603 147.226c0-13.705-5.997-26.686-16.454-35.612-8.963-7.652-20.383-11.585-32.002-11.187-8.927-16.786-26.268-27.354-45.604-27.354-23.428 0-43.46 15.429-49.703 37.453-8.979 1.236-17.26 5.31-23.778 11.786-8.005 7.954-12.414 18.528-12.414 29.775 0 23.138 18.824 41.961 41.962 41.961h91.169c25.819.001 46.824-21.004 46.824-46.822zm-46.824 31.823h-91.169c-14.867 0-26.962-12.095-26.962-26.961 0-7.222 2.836-14.018 7.986-19.135 5.084-5.052 11.85-7.827 19.069-7.827.076 0 .153.001.229.001 3.674 0 6.811-2.663 7.402-6.294 2.904-17.823 18.131-30.76 36.208-30.76 15.086 0 28.463 9.067 34.08 23.102 1.301 3.251 4.68 5.169 8.139 4.62 9.208-1.462 18.557 1.172 25.648 7.226 7.113 6.073 11.193 14.896 11.193 24.205.001 17.548-14.275 31.823-31.823 31.823z"/>
        <path d="m159.431 147.476h-9.611c-4.142 0-7.5 3.357-7.5 7.5s3.358 7.5 7.5 7.5h9.611c4.142 0 7.5-3.357 7.5-7.5s-3.358-7.5-7.5-7.5z"/>
        <path d="m246.896 192.393v80.013c0 4.143 3.358 7.5 7.5 7.5h38.263c4.143 0 7.5-3.357 7.5-7.5v-80.013c0-4.143-3.357-7.5-7.5-7.5h-38.263c-4.142 0-7.5 3.357-7.5 7.5zm15 7.5h23.264v65.013h-23.264z"/>
        <path d="m320.492 162.393v110.013c0 4.143 3.357 7.5 7.5 7.5h38.264c4.143 0 7.5-3.357 7.5-7.5v-110.013c0-4.143-3.357-7.5-7.5-7.5h-38.264c-4.143 0-7.5 3.357-7.5 7.5zm15 7.5h23.264v95.013h-23.264z"/>
        <path d="m394.087 112.393v160.013c0 4.143 3.357 7.5 7.5 7.5h38.264c4.143 0 7.5-3.357 7.5-7.5v-160.013c0-4.143-3.357-7.5-7.5-7.5h-38.264c-4.142 0-7.5 3.357-7.5 7.5zm15 7.5h23.264v145.013h-23.264z"/>
        <path d="m279.594 169.893c4.143 0 7.5-3.357 7.5-7.5s-3.357-7.5-7.5-7.5h-12.132c-4.143 0-7.5 3.357-7.5 7.5s3.357 7.5 7.5 7.5z"/>
        <path d="m353.19 141.061c4.143 0 7.5-3.357 7.5-7.5s-3.357-7.5-7.5-7.5h-12.132c-4.143 0-7.5 3.357-7.5 7.5s3.357 7.5 7.5 7.5z"/>
        <path d="m426.786 93.23c4.143 0 7.5-3.357 7.5-7.5s-3.357-7.5-7.5-7.5h-12.132c-4.143 0-7.5 3.357-7.5 7.5s3.357 7.5 7.5 7.5z"/>
        <path d="m132.148 224.899h37.283c4.142 0 7.5-3.357 7.5-7.5s-3.358-7.5-7.5-7.5h-37.283c-4.142 0-7.5 3.357-7.5 7.5s3.358 7.5 7.5 7.5z"/>
        <path d="m132.148 250.331h57.283c4.142 0 7.5-3.357 7.5-7.5s-3.358-7.5-7.5-7.5h-57.283c-4.142 0-7.5 3.357-7.5 7.5s3.358 7.5 7.5 7.5z"/>
        <path d="m132.148 275.763h77.283c4.142 0 7.5-3.357 7.5-7.5s-3.358-7.5-7.5-7.5h-77.283c-4.142 0-7.5 3.357-7.5 7.5s3.358 7.5 7.5 7.5z"/>
    </g>
</svg>
